<svg id="Layer_1" data-name="Layer 1" xmlns="http://www.w3.org/2000/svg" viewBox="0 0 200 200"><defs><style>.cls-1{fill:#dbb3f5;}.cls-2,.cls-3{fill:#fff;}.cls-3{font-size:120px;font-family:Oswald-Bold, Oswald;font-weight:700;}</style></defs><title>Cybersafe_iconsArtboard 2 copy</title><rect class="cls-1" x="42.12" y="82.67" width="115.8" height="115.8" rx="19"/><g id="_4RoAdD" data-name="4RoAdD"><path class="cls-2" d="M61.63,168.44A33.77,33.77,0,0,0,86,161.58c-7.58-.66-12.65-4.43-15.48-11.55a18.39,18.39,0,0,0,7.42-.36,16.68,16.68,0,0,1-9.53-5.88,16.23,16.23,0,0,1-3.64-10.58,17.16,17.16,0,0,0,7.42,2,16.67,16.67,0,0,1-6.88-10.1,16.47,16.47,0,0,1,1.81-12,47.51,47.51,0,0,0,34.19,17.34c-.1-1.08-.23-2.07-.29-3.06a16.6,16.6,0,0,1,19.35-17.12,16.33,16.33,0,0,1,8.8,4.49,1.21,1.21,0,0,0,1.32.34,33.78,33.78,0,0,0,8.9-3.38l.84-.44a16.75,16.75,0,0,1-6.87,8.92l.09.21c1.49-.32,3-.57,4.48-1s2.89-1,4.5-1.5a24,24,0,0,1-1.9,2.5c-1.87,1.88-3.8,3.71-5.75,5.51a1.45,1.45,0,0,0-.54,1.21,48.1,48.1,0,0,1-15.15,36.35,43.27,43.27,0,0,1-23,11.56,48.16,48.16,0,0,1-25.45-2.14,46.31,46.31,0,0,1-8.57-4.2C61.92,168.68,61.85,168.61,61.63,168.44Z"/></g><text class="cls-3" transform="translate(95.66 -29.4)">f</text></svg>