<svg id="Layer_1" data-name="Layer 1" xmlns="http://www.w3.org/2000/svg" viewBox="0 0 200 200"><defs><style>.cls-1{fill:#dbb3f5;}.cls-2{fill:#fff;}</style></defs><title>Cybersafe_iconsArtboard 1</title><rect class="cls-1" x="42.1" y="82.43" width="115.8" height="115.8" rx="19"/><rect class="cls-2" x="59.79" y="126.05" width="17.33" height="55.13"/><path class="cls-2" d="M141.56,138.82c.88,3.51.28,42.36.28,42.36H125.35V149.93a9.35,9.35,0,0,0,0-1.33c-.15-3-1.49-10.92-10.58-10.92a8.77,8.77,0,0,0-8.63,5.45,23,23,0,0,0-1.46,8v30H87.76V124.8h16.92v8.65c5-6,8.65-9.85,16.33-9.85a24.3,24.3,0,0,1,10.59,2.45C137.55,129.91,140.37,134,141.56,138.82Z"/><path class="cls-2" d="M124.35,149.93V148.6A9.35,9.35,0,0,1,124.35,149.93Z"/><circle class="cls-2" cx="68.76" cy="108.23" r="10.23"/></svg>