<svg id="Layer_1" data-name="Layer 1" xmlns="http://www.w3.org/2000/svg" viewBox="0 0 200 200"><defs><style>.cls-1{fill:#efdefb;}.cls-2{fill:#dbb3f5;}.cls-3{fill:#fff;}</style></defs><title>Cybersafe_iconsArtboard 2 copy 2</title><rect class="cls-1" x="24.23" y="100.54" width="153.75" height="97.79"/><rect class="cls-2" x="24.23" y="100.07" width="153.75" height="7.32"/><path class="cls-2" d="M69.17,124.32s11.21-.07,16.74-1.91,13.89-7,13.89-7,3.69,2,5.19,2.67l6.36,2.85s-9.87,7.87-14.39,9.71-15.57,4-15.57,4S81.05,146.51,82.9,152s3.68,9.88,7.36,13.73,11,8.87,11,8.87-5.48,3.18-7.16,4-5.52,2.67-5.52,2.67a43.85,43.85,0,0,1-12.73-14.06c-4-7.15-4-9.71-5.35-16.24S69.34,133.79,69.17,132,69.17,124.32,69.17,124.32Z"/><path class="cls-3" d="M101.27,129.61l11.26-8.56a49.42,49.42,0,0,0,8.81,2.74,57,57,0,0,0,11.34.53s1.67,18.5-1.52,29.35-5.87,16.64-11.74,22.6-18.15,13-18.15,13l-12-7.28s8.64-4.67,10.74-5.87a46.64,46.64,0,0,0,13.26-12c4.11-5.35,6.47-13.44,7.1-18.91a34.53,34.53,0,0,0-.38-10.08,30.74,30.74,0,0,1-10.57-1.5C103.44,131.8,101.27,129.61,101.27,129.61Z"/><circle class="cls-1" cx="29.22" cy="104" r="2.04"/><circle class="cls-3" cx="35.79" cy="104" r="2.04"/><circle class="cls-3" cx="42.35" cy="104" r="2.04"/></svg>