<svg id="Layer_1" data-name="Layer 1" xmlns="http://www.w3.org/2000/svg" viewBox="0 0 176.31 110.23"><defs><style>.cls-1{fill:#00fbcc;}.cls-2{fill:#c269f0;}.cls-3{fill:#fff;}.cls-4{fill:#dbb3f5;}</style></defs><title>CyberFooterArtboard 8 copy 2</title><rect class="cls-1" x="46.15" y="62.41" width="75.76" height="36.36" rx="17.69"/><circle class="cls-2" cx="100.52" cy="80.59" r="12.03"/><path class="cls-3" d="M61.75,86.69a5.51,5.51,0,0,1-1-3.59V77.68a5.45,5.45,0,0,1,1-3.57,4.17,4.17,0,0,1,3.37-1.2,4.23,4.23,0,0,1,3.39,1.21,5.38,5.38,0,0,1,1,3.56V83.1a5.45,5.45,0,0,1-1,3.59,4.2,4.2,0,0,1-3.39,1.22A4.14,4.14,0,0,1,61.75,86.69ZM66,85.16a3,3,0,0,0,.21-1.25v-7A3,3,0,0,0,66,75.63a.91.91,0,0,0-.9-.45.88.88,0,0,0-.87.46A3.06,3.06,0,0,0,64,76.89v7a3.25,3.25,0,0,0,.19,1.25.86.86,0,0,0,.89.46A.9.9,0,0,0,66,85.16Z"/><path class="cls-3" d="M71.49,73.11h2.27l3,7v-7h2.67V87.69H77.23l-3-7.56v7.56H71.49Z"/><path class="cls-4" d="M20.93,27.91a5.61,5.61,0,0,1-1-3.6V19.05a5.75,5.75,0,0,1,1-3.65,4.12,4.12,0,0,1,3.39-1.23,4.13,4.13,0,0,1,3.24,1.1,4.63,4.63,0,0,1,.95,3.11v1.26H25.35V18.19a3.64,3.64,0,0,0-.18-1.3c-.12-.3-.41-.45-.86-.45a.88.88,0,0,0-.9.48,3.15,3.15,0,0,0-.22,1.32V25.1a3.11,3.11,0,0,0,.22,1.32.9.9,0,0,0,.9.46.81.81,0,0,0,.85-.46,3.55,3.55,0,0,0,.19-1.32V23.57H28.5v1.26A4.87,4.87,0,0,1,27.55,28a4,4,0,0,1-3.24,1.14A4.07,4.07,0,0,1,20.93,27.91Z"/><path class="cls-4" d="M30.26,14.37h3.22v12.4h3.35V29H30.26Z"/><path class="cls-4" d="M38.26,14.37h3.22V29H38.26Z"/><path class="cls-4" d="M44.46,27.91a5.61,5.61,0,0,1-1-3.6V19.05a5.75,5.75,0,0,1,1-3.65,4.1,4.1,0,0,1,3.38-1.23,4.13,4.13,0,0,1,3.24,1.1,4.58,4.58,0,0,1,1,3.11v1.26H48.87V18.19a3.92,3.92,0,0,0-.17-1.3q-.18-.45-.87-.45a.88.88,0,0,0-.9.48,3.34,3.34,0,0,0-.21,1.32V25.1a3.11,3.11,0,0,0,.22,1.32.89.89,0,0,0,.89.46.83.83,0,0,0,.86-.46,3.8,3.8,0,0,0,.18-1.32V23.57H52v1.26a4.82,4.82,0,0,1-1,3.19,4,4,0,0,1-3.24,1.14A4,4,0,0,1,44.46,27.91Z"/><path class="cls-4" d="M53.79,14.37H57v6l2.45-6h3.15L59.91,21l2.82,8H59.46l-2.11-6.44-.34.57V29H53.79Z"/><path class="cls-4" d="M69.92,16.76h-2.2V14.37h7.61v2.39H73.16V29H69.92Z"/><path class="cls-4" d="M77.28,28a5.53,5.53,0,0,1-1-3.59V18.94a5.45,5.45,0,0,1,1-3.57,4.16,4.16,0,0,1,3.36-1.2A4.21,4.21,0,0,1,84,15.38a5.44,5.44,0,0,1,1,3.56v5.42A5.53,5.53,0,0,1,84,28a4.21,4.21,0,0,1-3.4,1.21A4.13,4.13,0,0,1,77.28,28Zm4.26-1.53a2.89,2.89,0,0,0,.22-1.25v-7a2.88,2.88,0,0,0-.22-1.26.89.89,0,0,0-.9-.45.85.85,0,0,0-.86.46,3,3,0,0,0-.22,1.25v7a3.26,3.26,0,0,0,.2,1.25.85.85,0,0,0,.88.46A.88.88,0,0,0,81.54,26.42Z"/><path class="cls-4" d="M92.42,27.91a5.68,5.68,0,0,1-1-3.6V19.05a5.75,5.75,0,0,1,1-3.65A5.29,5.29,0,0,1,99,15.27a4.57,4.57,0,0,1,.95,3.11v1.26H96.84V18.19a3.64,3.64,0,0,0-.18-1.3c-.12-.3-.4-.45-.86-.45a.88.88,0,0,0-.9.48,3.31,3.31,0,0,0-.22,1.32V25.1a3.1,3.1,0,0,0,.23,1.32.89.89,0,0,0,.89.46.81.81,0,0,0,.85-.46,3.55,3.55,0,0,0,.19-1.32V23.57H100v1.26A4.82,4.82,0,0,1,99,28a4,4,0,0,1-3.24,1.14A4.08,4.08,0,0,1,92.42,27.91Z"/><path class="cls-4" d="M101.81,14.37H105v5.9h2.25v-5.9h3.24V29h-3.24V22.58H105V29h-3.22Z"/><path class="cls-4" d="M114.79,14.37h3.67L121.18,29h-3l-.49-3.08h-2.14l-.5,3.08h-3Zm2.63,9.57-.78-5.68-.77,5.68Z"/><path class="cls-4" d="M122.66,14.37h2.26l3,7v-7h2.67V29H128.4l-3-7.56V29h-2.75Z"/><path class="cls-4" d="M133.47,27.85a6.46,6.46,0,0,1-.91-3.73V19.23a6.11,6.11,0,0,1,1-3.76,4,4,0,0,1,3.38-1.3,4.18,4.18,0,0,1,3.28,1.12,4.58,4.58,0,0,1,1,3.15v.93h-3.15V18.19a3.35,3.35,0,0,0-.2-1.31,1.09,1.09,0,0,0-1.79.05,3.44,3.44,0,0,0-.21,1.34V25a3,3,0,0,0,.26,1.36,1,1,0,0,0,.95.5c.83,0,1.26-.63,1.26-1.89V23.28H137V21.39h4.21V29h-2.12l-.18-1.21a2.41,2.41,0,0,1-2.36,1.42A3.49,3.49,0,0,1,133.47,27.85Z"/><path class="cls-4" d="M143.23,14.37h6.55v2.2h-3.33v3.61H149v2.23h-2.54v4.36h3.37V29h-6.59Z"/><path class="cls-3" d="M17.11,36H22a3.61,3.61,0,0,1,2.88,1.09,4.59,4.59,0,0,1,1,3.14,4,4,0,0,1-1.11,3.25,4.8,4.8,0,0,1-3.11.91H20.33v6.19H17.11Zm4.3,6.14a1.21,1.21,0,0,0,1.12-.45,3,3,0,0,0,.28-1.51,3,3,0,0,0-.27-1.45c-.18-.31-.56-.46-1.15-.46H20.33v3.87Z"/><path class="cls-3" d="M27.38,36h4a6.29,6.29,0,0,1,3.61.85,3.37,3.37,0,0,1,1.23,3,5.9,5.9,0,0,1-.38,2.32,2.68,2.68,0,0,1-1.4,1.35l2,7.06H33.12L31.52,44H30.6v6.53H27.38Zm4.13,6.19a1.59,1.59,0,0,0,1.35-.51,3.25,3.25,0,0,0,0-3,1.43,1.43,0,0,0-1.24-.49h-1v4Z"/><path class="cls-3" d="M38.2,36h3.22V50.55H38.2Z"/><path class="cls-3" d="M42.92,36h2.75l1.57,9.9L48.69,36h2.92L49,50.55H45.54Z"/><path class="cls-3" d="M54.56,36h3.68L61,50.55H58l-.48-3.08H55.35l-.5,3.08h-3Zm2.63,9.58-.77-5.69-.78,5.69Z"/><path class="cls-3" d="M63,49.51a5.63,5.63,0,0,1-1-3.61V40.65A5.75,5.75,0,0,1,63,37a4.1,4.1,0,0,1,3.38-1.23,4.13,4.13,0,0,1,3.24,1.1,4.58,4.58,0,0,1,1,3.11v1.26H67.41V39.78a3.9,3.9,0,0,0-.17-1.29q-.18-.45-.87-.45a.88.88,0,0,0-.9.48,3.3,3.3,0,0,0-.21,1.32V46.7A3.11,3.11,0,0,0,65.48,48a.89.89,0,0,0,.89.46.83.83,0,0,0,.86-.46,3.8,3.8,0,0,0,.18-1.32V45.17h3.16v1.26a4.8,4.8,0,0,1-1,3.19,4,4,0,0,1-3.24,1.15A4,4,0,0,1,63,49.51Z"/><path class="cls-3" d="M74.09,44.59,71.32,36h3l1.39,4.61L77,36h2.92l-2.72,8.62v6h-3.1Z"/><path class="cls-3" d="M86.5,49.66a5.4,5.4,0,0,1-1.09-3.52l2.76-.41a4.65,4.65,0,0,0,.33,2,1,1,0,0,0,1,.61c.54,0,.81-.36.81-1.06a2.65,2.65,0,0,0-.39-1.46,6.14,6.14,0,0,0-1.21-1.32l-1.27-1.09A6.39,6.39,0,0,1,86,41.7a4.08,4.08,0,0,1-.52-2.11,3.65,3.65,0,0,1,1.09-2.83,4.31,4.31,0,0,1,3-1A3,3,0,0,1,92.34,37a5.92,5.92,0,0,1,.8,2.93l-2.77.34a6.56,6.56,0,0,0-.21-1.63.79.79,0,0,0-1.39-.14,1.42,1.42,0,0,0-.22.78,2.24,2.24,0,0,0,.33,1.25A6.28,6.28,0,0,0,90,41.66l1.21,1.06a7.62,7.62,0,0,1,1.67,1.94,4.76,4.76,0,0,1,.6,2.43A3.69,3.69,0,0,1,93,49a3.61,3.61,0,0,1-1.34,1.32,4.67,4.67,0,0,1-5.11-.62Z"/><path class="cls-3" d="M95,36h6.55v2.2H98.21v3.61h2.54V44H98.21v4.35h3.37v2.18H95Z"/><path class="cls-3" d="M104.35,38.36h-2.19V36h7.61v2.39h-2.18V50.55h-3.24Z"/><path class="cls-3" d="M112.36,38.36h-2.2V36h7.62v2.39H115.6V50.55h-3.24Z"/><path class="cls-3" d="M119.07,36h3.23V50.55h-3.23Z"/><path class="cls-3" d="M124.47,36h2.27l3,7V36h2.66V50.55h-2.17l-3-7.56v7.56h-2.76Z"/><path class="cls-3" d="M135.29,49.45a6.45,6.45,0,0,1-.92-3.72v-4.9a6.1,6.1,0,0,1,1-3.76,4,4,0,0,1,3.38-1.3A4.16,4.16,0,0,1,142,36.89,4.58,4.58,0,0,1,143,40V41h-3.15V39.78a3.36,3.36,0,0,0-.19-1.3,1.11,1.11,0,0,0-1.8,0,3.79,3.79,0,0,0-.2,1.36v6.75a2.84,2.84,0,0,0,.26,1.35,1,1,0,0,0,.94.5q1.26,0,1.26-1.89V44.88h-1.31V43H143v7.56h-2.12l-.18-1.21a2.41,2.41,0,0,1-2.36,1.43A3.48,3.48,0,0,1,135.29,49.45Z"/><path class="cls-3" d="M145.81,49.66a5.34,5.34,0,0,1-1.09-3.52l2.76-.41a4.65,4.65,0,0,0,.33,2,1,1,0,0,0,.95.61c.54,0,.81-.36.81-1.06a2.65,2.65,0,0,0-.39-1.46A6,6,0,0,0,148,44.48l-1.26-1.09a6.63,6.63,0,0,1-1.45-1.69,4.17,4.17,0,0,1-.51-2.11,3.61,3.61,0,0,1,1.09-2.83,4.31,4.31,0,0,1,3-1A3,3,0,0,1,151.64,37a5.83,5.83,0,0,1,.81,2.93l-2.78.34a6.21,6.21,0,0,0-.2-1.63.79.79,0,0,0-1.39-.14,1.42,1.42,0,0,0-.22.78,2.24,2.24,0,0,0,.33,1.25,6.28,6.28,0,0,0,1.07,1.15l1.21,1.06a7.62,7.62,0,0,1,1.67,1.94,4.76,4.76,0,0,1,.59,2.43,3.79,3.79,0,0,1-.47,1.87,3.61,3.61,0,0,1-1.34,1.32,4.09,4.09,0,0,1-2,.49A4,4,0,0,1,145.81,49.66Z"/></svg>