<svg id="Layer_1" data-name="Layer 1" xmlns="http://www.w3.org/2000/svg" viewBox="0 0 200 71"><defs><style>.cls-1{fill:#ff4f5e;}.cls-2{fill:#fff;}</style></defs><title>CyberFooterArtboard 15</title><path class="cls-1" d="M59.21,64.1s.07-10,1.72-15,6.29-12.44,6.29-12.44-1.8-3.3-2.4-4.65l-2.54-5.7s-7.05,8.85-8.7,12.89S50,53.16,50,53.16s-10.64.3-15.59-1.35-8.84-3.3-12.29-6.6a79.87,79.87,0,0,1-7.94-9.86s-2.85,4.91-3.6,6.41-2.4,5-2.4,5A39.2,39.2,0,0,0,20.75,58.1c6.4,3.62,8.7,3.6,14.54,4.8S50.73,64,52.38,64.1,59.21,64.1,59.21,64.1Z"/><path class="cls-2" d="M54.48,35.35l7.66-10.08a44.67,44.67,0,0,1-2.45-7.88,51,51,0,0,1-.48-10.17S42.65,5.74,32.94,8.58,18,13.84,12.7,19.1,1,35.35,1,35.35L7.55,46.1s4.18-7.74,5.25-9.62A41.84,41.84,0,0,1,23.55,24.6c4.79-3.67,12-5.79,16.93-6.35a31.16,31.16,0,0,1,9,.34,27.34,27.34,0,0,0,1.34,9.47C52.52,33.41,54.48,35.35,54.48,35.35Z"/><path class="cls-1" d="M141,6.9s-.07,10-1.71,15S133,34.33,133,34.33s1.8,3.3,2.4,4.65l2.55,5.7s7-8.85,8.69-12.89,3.6-13.95,3.6-13.95,10.64-.3,15.59,1.35,8.84,3.3,12.29,6.6a79.87,79.87,0,0,1,7.94,9.86s2.85-4.91,3.6-6.41,2.4-4.95,2.4-4.95A39.2,39.2,0,0,0,179.46,12.9c-6.4-3.62-8.7-3.6-14.54-4.8s-15.44-1-17.09-1.2S141,6.9,141,6.9Z"/><path class="cls-2" d="M145.73,35.65l-7.66,10.08a45.12,45.12,0,0,1,2.46,7.89A51.37,51.37,0,0,1,141,63.78s16.56,1.48,26.28-1.36,14.9-5.26,20.23-10.52,11.67-16.25,11.67-16.25L192.66,24.9s-4.18,7.74-5.25,9.62A41.94,41.94,0,0,1,176.67,46.4c-4.8,3.67-12,5.79-16.94,6.35a31.2,31.2,0,0,1-9-.34,27.45,27.45,0,0,0-1.33-9.47C147.69,37.59,145.73,35.65,145.73,35.65Z"/><path class="cls-1" d="M102.53,43c-1.89,0-3.76,0-5.62,0-.2,0-.47-.27-.55-.48a15.62,15.62,0,0,1-.47-1.62c-1.28,0-2.54,0-3.79,0a1.1,1.1,0,0,0-.72.76c-.09,1.18-.7,1.45-1.79,1.36-1.27-.1-2.56,0-4,0,1.62-5.27,3.21-10.4,4.81-15.61,2.41,0,4.79,0,7.17,0a.72.72,0,0,1,.52.43q2.28,7.39,4.52,14.8C102.59,42.69,102.56,42.75,102.53,43Zm-7.59-6.17-1.1-4.3-.18,0-1.12,4.28Z"/><path class="cls-1" d="M71.81,37.88c1.69,0,3.33,0,5,0,.18,0,.41.24.52.43a1.71,1.71,0,0,0,2.13.79c.25-.1.56-.48.53-.67a1.09,1.09,0,0,0-.62-.73c-.87-.23-1.77-.34-2.66-.5-.41-.07-.82-.15-1.23-.26A4.11,4.11,0,0,1,72,33.17a4.74,4.74,0,0,1,2.37-5A9,9,0,0,1,82.76,28,4.27,4.27,0,0,1,85,32.3c-1.59,0-3.2,0-4.81,0-.19,0-.37-.25-.55-.39s-.56-.66-.85-.66-1.06.18-1.19.47c-.26.59.32.83.81.92,1.08.2,2.17.31,3.24.53,2.53.53,3.66,1.7,3.94,4a5.11,5.11,0,0,1-2.85,5.27,10.23,10.23,0,0,1-8.54,0A4.29,4.29,0,0,1,71.81,37.88Z"/><path class="cls-1" d="M129.07,38.6v4.33h-11.9V27.44h11.54v4.3H123V33.1h4.5v4H123V38.6Z"/><path class="cls-1" d="M115.31,27.43v4.32H110v2.13h4.29v4.28h-4.34v4.75h-5.85V27.43Z"/><path class="cls-1" d="M96.28,25.23V13.14h1.35c1.91,0,3.81,0,5.72,0,2.12.05,3.41,1.26,3.45,3.13A2.63,2.63,0,0,1,105,19a2.87,2.87,0,0,1,2,3,3,3,0,0,1-2.27,3,8.44,8.44,0,0,1-2,.24C100.63,25.25,98.5,25.23,96.28,25.23Zm4.46-2.67a7.76,7.76,0,0,0,1.68-.81,1.09,1.09,0,0,0-.08-1,6.4,6.4,0,0,0-1.6-.51Zm0-4.77a10.84,10.84,0,0,0,1.64-.55c.1,0,.1-.7,0-.75a10.9,10.9,0,0,0-1.63-.58Z"/><path class="cls-1" d="M127.86,20.51c.41.82.81,1.59,1.2,2.36l1.18,2.35c-1.56,0-3,0-4.38,0-.2,0-.47-.29-.58-.51a32.73,32.73,0,0,0-1.77-3.18v3.63H119V13.31c2.52,0,5-.12,7.45,0a3.31,3.31,0,0,1,3,2.63C129.9,17.76,129.47,19,127.86,20.51Zm-4.31-3.89v2c.81,0,1.61,0,1.62-1S124.35,16.64,123.55,16.62Z"/><path class="cls-1" d="M83.62,18H79.14a4.91,4.91,0,0,0-.78-1.16,1.31,1.31,0,0,0-2,.72,9.44,9.44,0,0,0,0,3.31c.07.4.84.83,1.37,1A1.24,1.24,0,0,0,79.16,21c.1-.21.36-.5.56-.51,1.31,0,2.63,0,3.93,0A4.3,4.3,0,0,1,80.81,25a8.31,8.31,0,0,1-6.33-.06c-2.38-1-3.58-3.43-3.26-6.42A6,6,0,0,1,77.28,13a11.77,11.77,0,0,1,2.3.18C82.1,13.68,83.45,15.31,83.62,18Z"/><path class="cls-1" d="M108.28,25.15V13.23h9v3.33h-4.35l-.1,1.05h3.47v3.1h-3.4l0,1.07c1.32,0,2.54.06,3.75,0,.9-.06,1.13.27,1.06,1.1s0,1.47,0,2.29Z"/><path class="cls-1" d="M91.35,25.18H86.88c0-1.36.07-2.67,0-4a5.53,5.53,0,0,0-.55-2.08c-.88-1.72-1.87-3.39-2.81-5.08-.13-.25-.24-.51-.43-.89,1.6,0,3.07,0,4.54,0,.2,0,.46.31.58.54.38.77.72,1.57,1.18,2.6.45-1,.84-1.71,1.16-2.49a1,1,0,0,1,1.1-.69c1.12,0,2.24,0,3.55,0-.68,1.29-1.19,2.51-1.91,3.59a10.38,10.38,0,0,0-1.8,7.3,6.32,6.32,0,0,1,0,.87A2,2,0,0,1,91.35,25.18Z"/><path class="cls-1" d="M117.55,54.55V51c0-1.55,0-3.1,0-4.65,0-.19.22-.38.34-.58.14.17.4.33.4.5,0,3.25,0,6.51,0,9.75-.7.33-1.06.07-1.39-.47-1.55-2.5-3.12-5-4.68-7.46l-.76-1.18c0,.57-.08.87-.08,1.17q0,3.63,0,7.26c0,.42.12,1-.71.74V45.88c.76-.31,1.15,0,1.52.62,1.67,2.71,3.39,5.4,5.09,8.1Z"/><path class="cls-1" d="M121.07,56.18V45.69a28.94,28.94,0,0,1,4.43.33c2.57.57,3.93,3.3,3.3,6.22A4.62,4.62,0,0,1,124,56.17C123.06,56.19,122.1,56.18,121.07,56.18Zm.8-.71c2,0,4,.26,5.39-1.66a5.6,5.6,0,0,0,.08-5.61c-1.35-2-3.4-1.76-5.47-1.73Z"/><path class="cls-1" d="M80.19,51.42,83.28,56l-.17.26c-.33-.18-.76-.29-1-.56A27.07,27.07,0,0,1,80,52.6a2.16,2.16,0,0,0-2.87-1.12c0,1.29,0,2.6,0,3.91,0,.27-.26.52-.39.78-.13-.24-.35-.49-.36-.73,0-3.19,0-6.37,0-9.73,1.47.07,2.85,0,4.2.22a2.37,2.37,0,0,1,2.19,2.43,2.5,2.5,0,0,1-2,2.81Zm-3-4.88v4.23c1.05-.06,2-.06,3-.19a1.89,1.89,0,0,0,1.73-2,1.85,1.85,0,0,0-1.77-2A29.21,29.21,0,0,0,77.21,46.54Z"/><path class="cls-1" d="M108.64,56.26c-.26-.18-.51-.35-.76-.54,0,0,0,0,0-.08-.36-.88-.72-1.77-1.09-2.65-1.38,0-2.77,0-4.15,0-.18,0-.43.34-.52.57-.29.68-.47,1.4-.77,2.08-.12.26-.43.43-.66.64l-.27-.21c.18-.53.35-1.07.54-1.6,1-2.67,1.89-5.34,2.89-8a1.18,1.18,0,0,1,.84-.65c.23,0,.64.34.74.62,1.14,3.05,2.23,6.1,3.33,9.16a2.46,2.46,0,0,1,.08.46Zm-2-4-2.07-5.74c-.74,2.05-1.39,3.85-2.06,5.74Z"/><path class="cls-1" d="M86,46.45v4c1.18,0,2.3,0,3.42,0,.25,0,.49.23.73.36a2.22,2.22,0,0,1-.7.29c-1.12,0-2.25,0-3.44,0V55.5h3.82a7.45,7.45,0,0,1,1.06,0c.17,0,.32.22.48.34-.16.1-.32.3-.48.3-1.87,0-3.74,0-5.67,0V45.77c1.85,0,3.64,0,5.44,0,.16,0,.31.22.46.33-.19.11-.38.32-.57.32C89.06,46.46,87.58,46.45,86,46.45Z"/><path class="cls-1" d="M94.22,55.51c1.51,0,2.92,0,4.33,0a2.49,2.49,0,0,1,.77.31l-.11.3H93.5V45.88c.71-.05.72-.05.72.64,0,2.61,0,5.22,0,7.83Z"/><path class="cls-1" d="M73.41,56.24c-.17-.2-.48-.41-.48-.62q0-4.63,0-9.27c0-.22.3-.43.47-.64l.24.16v10.2Z"/></svg>